# AST/ASF file generated using VICON BodyLanguage
# -----------------------------------------------
:version 1.10
:name VICON
:units
  mass 1.0
  length 0.45
  angle deg
:documentation
   .ast/.asf automatically generated from VICON data using
   VICON BodyBuilder and BodyLanguage model FoxedUp or BRILLIANT.MOD
:root
   order TX TY TZ RX RY RZ
   axis XYZ
   position 0 0 0  
   orientation 0 0 0 
:bonedata
  begin
     id 1 
     name lhipjoint
     direction 0.573633 -0.743009 0.344793 
     length 2.46257 
     axis 0 0 0  XYZ
  end
  begin
     id 2 
     name lfemur
     direction 0.34202 -0.939693 0  
     length 7.3842  
     axis 0 0 20  XYZ
    dof rx ry rz
    limits (-160.0 20.0)
           (-70.0 70.0)
           (-60.0 70.0)
  end
  begin
     id 3 
     name ltibia
     direction 0.34202 -0.939693 0   
     length 7.50407   
     axis 0 0 20   XYZ
    dof rx
    limits (-10.0 170.0)
  end
  begin
     id 4 
     name lfoot
     direction 0.110749 -0.304281 0.946123   
     length 1.95925   
     axis -90 7.62852e-016 20   XYZ
    dof rx rz
    limits (-45.0 90.0)
           (-70.0 20.0)
  end
  begin
     id 5 
     name ltoes
     direction 1.53554e-011 -4.21843e-011 1   
     length 0.978318   
     axis -90 7.62852e-016 20   XYZ
    dof rx
    limits (-90.0 20.0)
  end
  begin
     id 6 
     name rhipjoint
     direction -0.488109 -0.791693 0.367385   
     length 2.31113  
     axis 0 0 0  XYZ 
  end
  begin
     id 7 
     name rfemur
     direction -0.34202 -0.939693 0   
     length 7.40965   
     axis 0 0 -20   XYZ
    dof rx ry rz
    limits (-160.0 20.0)
           (-70.0 70.0)
           (-70.0 60.0)
  end
  begin
     id 8 
     name rtibia
     direction -0.34202 -0.939693 0   
     length 7.55548   
     axis 0 0 -20   XYZ
    dof rx
    limits (-10.0 170.0)
 end
 begin
     id 9 
     name rfoot
     direction -0.127594 -0.350561 0.927808   
     length 2.07199  
     axis -90 -7.62852e-016 -20   XYZ
    dof rx rz
    limits (-45.0 90.0)
           (-20.0 70.0)
  end
  begin
     id 10 
     name rtoes
     direction -1.53542e-011 -4.21909e-011 1   
     length 1.02667   
     axis -90 -7.62852e-016 -20   XYZ
    dof rx
    limits (-90.0 20.0)
  end
  begin
     id 11 
     name lowerback
     direction -0.0103342 0.997298 -0.0727278   
     length 2.02836   
     axis 0 0 0   XYZ
    dof rx ry rz
    limits (-20.0 45.0)
           (-30.0 30.0)
           (-30.0 30.0)
  end
  begin
     id 12 
     name upperback
     direction 0.0171146 0.999786 -0.011606   
     length 2.03179   
     axis 0 0 0   XYZ
    dof rx ry rz
    limits (-20.0 45.0)
           (-30.0 30.0)
           (-30.0 30.0)
  end
  begin
     id 13 
     name thorax
     direction 0.0216927 0.999513 0.0224343   
     length 2.03882   
     axis 0 0 0   XYZ
    dof rx ry rz
    limits (-20.0 45.0)
           (-30.0 30.0)
           (-30.0 30.0)
  end
  begin
     id 14 
     name lowerneck
     direction 0.000989287 0.993907 0.110221   
     length 1.75428   
     axis 0 0 0   XYZ
    dof rx ry rz
    limits (-20.0 45.0)
           (-30.0 30.0)
           (-30.0 30.0)
  end
  begin
     id 15 
     name upperneck
     direction -0.0172474 0.994813 -0.100253   
     length 1.77058   
     axis 0 0 0   XYZ
    dof rx ry rz
    limits (-20.0 45.0)
           (-30.0 30.0)
           (-30.0 30.0)
  end
  begin
     id 16
     name head
     direction -0.00486455 0.99894 -0.0457663  
     length 1.77427  
     axis 0 0 0   XYZ
    dof rx ry rz
    limits (-20.0 45.0)
           (-30.0 30.0)
           (-30.0 30.0)
  end
  begin
     id 17 
     name lclavicle
     direction 0.927314 0.333734 -0.169441  
     length 3.97584  
     axis 0 0 0   XYZ
    dof ry rz
    limits (-20.0 10.0)
           (0.0 20.0)
  end
  begin
     id 18 
     name lhumerus
     direction 1 -4.48965e-011 -3.25313e-028   
     length 4.76468   
     axis 180 -30 -90   XYZ
    dof rx ry rz
    limits (-60.0 90.0)
           (-90.0 90.0)
           (-90.0 90.0)
  end
  begin
     id 19
     name lradius
     direction 1 -4.48969e-011 -2.8465e-028   
     length 3.52712   
     axis -180 -30 -90   XYZ
    dof rx
    limits (-10.0 170.0)
  end
  begin
     id 20
     name lwrist
     direction 1 -4.4896e-011 -7.78665e-028   
     length 1.76356   
     axis 1.91374e-015 90 90   XYZ
    dof ry
    limits (-180.0 0.0)
 end
  begin
     id 21 
     name lhand
     direction 1 -4.48959e-011 -1.55733e-027   
     length 0.859564   
     axis 9.9371e-016 90 90   XYZ
    dof rx rz
    limits (-90.0 90.0)
           (-45.0 45.0)
  end
  begin
     id 22 
     name lfingers
     direction 1 -4.48965e-011 -3.11466e-027   
     length 0.693002   
     axis 1.98742e-015 90 90   XYZ
    dof rx
    limits (0.0 90.0)
  end
  begin
     id 23
     name lthumb
     direction 0.707107 -6.34948e-011 0.707107   
     length 0.995017   
     axis -90 45 2.85299e-015   XYZ
    dof rx rz
    limits (-45.0 45.0)
           (-45.0 45.0)
  end
  begin
     id 24 
     name rclavicle
     direction -0.899388 0.348209 -0.264294   
     length 3.68366  
     axis 0 0 0   XYZ 
    dof ry rz
    limits (-10.0 20.0)
           (-20.0 0.0)
  end
  begin
     id 25 
     name rhumerus
     direction -1 -4.48965e-011 -3.01536e-027  
     length 4.90577   
     axis 180 30 90   XYZ
    dof rx ry rz
    limits (-90.0 60.0)
           (-90.0 90.0)
           (-90.0 90.0)
  end
  begin
     id 26 
     name rradius
     direction -1 -4.48966e-011 3.93291e-027   
     length 3.42692   
     axis -180 30 90   XYZ
    dof rx
    limits (-10.0 170.0)
  end
  begin
     id 27 
     name rwrist
     direction -1 -4.48969e-011 -7.78665e-028   
     length 1.71346   
     axis 1.91374e-015 -90 -90   XYZ
    dof ry
    limits (-180.0 0.0)
  end
  begin
     id 28
     name rhand
     direction -1 -4.48967e-011 -1.55733e-027   
     length 0.740957   
     axis 9.9371e-016 -90 -90   XYZ
    dof rx rz
    limits (-90.0 90.0)
           (-45.0 45.0)
  end
  begin
     id 29
     name rfingers
     direction -1 -4.48949e-011 -3.11466e-027   
     length 0.597378   
     axis 1.98742e-015 -90 -90   XYZ
    dof rx
    limits (0.0 90.0)
  end
  begin
     id 30
     name rthumb
     direction -0.707107 -6.34931e-011 0.707107   
     length 0.857719   
     axis -90 -45 -2.85299e-015   XYZ
    dof rx rz
    limits (-45.0 45.0)
           (-45.0 45.0)
  end
:hierarchy
  begin
    root lhipjoint rhipjoint lowerback
    lhipjoint lfemur
    lfemur ltibia
    ltibia lfoot
    lfoot ltoes
    rhipjoint rfemur
    rfemur rtibia
    rtibia rfoot
    rfoot rtoes
    lowerback upperback
    upperback thorax
    thorax lowerneck lclavicle rclavicle
    lowerneck upperneck
    upperneck head
    lclavicle lhumerus
    lhumerus lradius
    lradius lwrist
    lwrist lhand lthumb
    lhand lfingers
    rclavicle rhumerus
    rhumerus rradius
    rradius rwrist
    rwrist rhand rthumb
    rhand rfingers
  end

#!OML:ASF E:\I on waltz\AllaLogoMonkeySwing\Project 1\Capture day 1\Session 1\Subject1.ASF
:FULLY-SPECIFIED
:DEGREES
600
root 0.702663 17.5325 -26.0675 -0.155305 7.35445 -1.81434
lowerback 3.57483 1.36535 -3.69446
upperback -0.187184 1.68804 1.10857
thorax -2.33844 0.894176 3.1197
lowerneck -13.0737 2.54838 0.973669
upperneck 27.1992 3.04483 1.5122
head 10.9133 1.69959 0.784265
rclavicle 3.80579e-014 -2.5842e-015
rhumerus -33.1291 -36.9215 -69.1811
rradius 14.481
rwrist 23.9123
rhand -6.87901 -395.282
rfingers 7.12502
rthumb 18.9872 -64.3752
lclavicle 3.80579e-014 -2.5842e-015
lhumerus -45.5567 42.366 61.8369
lradius 29.212
lwrist 21.7035
lhand -26.3446 -6.4151
lfingers 7.12502
lthumb 0.212876 23.5645
rfemur -5.05424 -0.853911 21.2593
rtibia 30.6655
rfoot -24.2969 -9.15312
rtoes 22.6572
lfemur -6.07733 0.668759 -20.8394
ltibia 29.4588
lfoot -25.115 -3.70568
ltoes -21.0462
601
root 0.700425 17.5326 -26.0723 -0.061699 7.29067 -1.54663
lowerback 3.50098 1.35767 -3.98258
upperback -0.109669 1.66798 1.04719
thorax -2.22207 0.883519 3.22223
lowerneck -13.1161 2.46217 1.03251
upperneck 27.004 2.97937 1.24328
head 10.8547 1.64205 0.666516
rclavicle -1.2921e-015 -1.59028e-015
rhumerus -33.5227 -38.3407 -68.2153
rradius 14.1057
rwrist 25.5663
rhand -6.96646 -395.67
rfingers 7.12502
rthumb 18.9031 -64.7714
lclavicle -1.2921e-015 -1.59028e-015
lhumerus -46.5041 43.3353 60.7105
lradius 28.3862
lwrist 18.7502
lhand -27.3278 -6.80965
lfingers 7.12502
lthumb -0.736676 23.1688
rfemur -5.21264 -0.917388 20.9597
rtibia 30.8223
rfoot -24.3168 -9.11324
rtoes 22.2658
lfemur -6.08815 0.661624 -21.1457
ltibia 29.3264
lfoot -25.0279 -3.61873
ltoes -21.0938
602
root 0.700904 17.5328 -26.0798 -0.00284809 7.22709 -1.31131
lowerback 3.4713 1.33217 -4.23006
upperback -0.00992731 1.62563 1.0103
thorax -2.10492 0.86058 3.32778
lowerneck -13.1911 2.43202 1.05934
upperneck 26.816 2.99228 1.00504
head 10.8039 1.62072 0.576505
rclavicle 1.28589e-015 -1.59028e-015
rhumerus -33.6925 -39.3096 -67.5469
rradius 13.8377
rwrist 26.5381
rhand -6.94309 -395.66
rfingers 7.12502
rthumb 18.9256 -64.759
lclavicle 1.28589e-015 -1.59028e-015
lhumerus -47.2377 43.7729 60.2291
lradius 28.139
lwrist 16.4713
lhand -27.0258 -7.39402
lfingers 7.12502
lthumb -0.445054 22.5853
rfemur -5.34474 -1.02497 20.6746
rtibia 30.957
rfoot -24.2679 -9.06437
rtoes 21.964
lfemur -6.08095 0.661165 -21.4204
ltibia 29.2255
lfoot -24.9251 -3.53449
ltoes -21.3522
603
root 0.703269 17.5333 -26.0886 0.0175741 7.16963 -1.16642
lowerback 3.47128 1.31212 -4.35945
upperback 0.103745 1.59538 1.00766
thorax -1.98852 0.842059 3.40107
lowerneck -13.3118 2.43284 0.961773
upperneck 26.7289 3.02657 0.960776
head 10.7941 1.62029 0.582346
rclavicle 3.08178e-014 2.38542e-015
rhumerus -33.538 -39.5131 -67.4311
rradius 13.6483
rwrist 26.8753
rhand -7.19445 -395.388
rfingers 7.12502
rthumb 18.6838 -64.5112
lclavicle 3.08178e-014 2.38542e-015
lhumerus -47.6212 43.4249 60.597
lradius 28.4913
lwrist 15.3025
lhand -26.6285 -7.77154
lfingers 7.12502
lthumb -0.0612492 22.2082
rfemur -5.43017 -1.15378 20.4623
rtibia 31.0474
rfoot -24.2671 -8.8207
rtoes 22.0233
lfemur -6.06152 0.679571 -21.5941
ltibia 29.163
lfoot -24.8358 -3.5001
ltoes -21.3699
604
root 0.706033 17.5296 -26.097 -0.0263418 7.12864 -1.15631
lowerback 3.47744 1.30398 -4.33374
upperback 0.250326 1.58828 1.04437
thorax -1.8405 0.832408 3.42665
lowerneck -13.3462 2.44732 0.911783
upperneck 26.5594 3.07191 0.906203
head 10.7376 1.62892 0.575402
rclavicle 1.54928e-014 -1.16289e-014
rhumerus -33.1491 -39.2921 -67.6789
rradius 13.6586
rwrist 26.5263
rhand -7.3233 -395.387
rfingers 7.12502
rthumb 18.5599 -64.5219
lclavicle 1.54928e-014 -1.16289e-014
lhumerus -47.6678 42.5993 61.5436
lradius 29.1874
lwrist 14.8564
lhand -25.6873 -8.1345
lfingers 7.12502
lthumb 0.84774 21.8436
rfemur -5.43514 -1.35112 20.4054
rtibia 31.1201
rfoot -24.2621 -8.67335
rtoes 21.5331
lfemur -5.9884 0.67959 -21.6243
ltibia 29.0922
lfoot -24.8191 -3.51385
ltoes -21.0117
605
root 0.705566 17.5279 -26.1058 -0.0236619 7.10429 -1.12636
lowerback 3.53485 1.31922 -4.34229
upperback 0.31907 1.60707 1.06033
thorax -1.80426 0.839828 3.4466
lowerneck -13.2871 2.44389 0.928921
upperneck 26.4045 3.07565 0.855106
head 10.6697 1.62628 0.551676
rclavicle 3.8763e-015 7.95139e-015
rhumerus -32.8337 -38.851 -68.0368
rradius 13.7977
rwrist 26.0069
rhand -7.41028 -395.356
rfingers 7.12502
rthumb 18.4762 -64.4986
lclavicle 3.8763e-015 7.95139e-015
lhumerus -47.508 41.2772 62.9001
lradius 30.1452
lwrist 14.8772
lhand -24.4757 -8.53793
lfingers 7.12502
lthumb 2.01794 21.4323
rfemur -5.49784 -1.46059 20.3619
rtibia 31.1953
rfoot -24.2383 -8.68435
rtoes 21.0052
lfemur -5.97636 0.602394 -21.6731
ltibia 29.0221
lfoot -24.7821 -3.50975
ltoes -20.6571
